<?xml version="1.0" encoding="UTF-8" standalone="no"?>
<svg
   xmlns:dc="http://purl.org/dc/elements/1.1/"
   xmlns:cc="http://creativecommons.org/ns#"
   xmlns:rdf="http://www.w3.org/1999/02/22-rdf-syntax-ns#"
   xmlns:svg="http://www.w3.org/2000/svg"
   xmlns="http://www.w3.org/2000/svg"
   viewBox="0 0 792.12 224.72"
   height="224.72"
   width="792.12"
   xml:space="preserve"
   id="svg2"
   version="1.1"><metadata
     id="metadata8"><rdf:RDF><cc:Work
         rdf:about=""><dc:format>image/svg+xml</dc:format><dc:type
           rdf:resource="http://purl.org/dc/dcmitype/StillImage" /></cc:Work></rdf:RDF></metadata><defs
     id="defs6"><clipPath
       id="clipPath20"
       clipPathUnits="userSpaceOnUse"><path
         id="path18"
         d="M 0,0 H 5940.94 V 1685 H 0 Z" /></clipPath></defs><g
     transform="matrix(1.3333333,0,0,-1.3333333,0,224.72)"
     id="g10"><g
       transform="scale(0.1)"
       id="g12"><g
         id="g14"><g
           clip-path="url(#clipPath20)"
           id="g16"><path
             id="path22"
             style="fill:#393536;fill-opacity:1;fill-rule:nonzero;stroke:none"
             d="M 305.77,1679.5 C 184.172,1628.56 50.4883,1484.83 8.26953,1304.29 -45.1992,1075.6 177.312,978.887 195.559,1010.55 c 21.48,37.26 -39.871,49.86 -52.5,168.52 -16.321,153.26 54.929,324.51 144.605,399.65 16.668,13.96 15.875,-5.47 15.875,-41.41 0,-64.27 -3.551,-641.216 -3.551,-761.634 0,-162.926 -6.73,-214.375 -18.816,-265.215 -12.246,-51.52 -31.934,-86.332 -17.016,-99.742 16.668,-15 87.832,20.679 129.032,78.179 49.402,68.961 66.695,151.782 69.8,241.719 3.75,108.418 3.59,280.463 3.75,378.593 0.149,90 1.516,353.54 -1.578,511.97 -0.758,38.86 -108.527,79.63 -159.39,58.32" /><path
             id="path24"
             style="fill:#393536;fill-opacity:1;fill-rule:nonzero;stroke:none"
             d="m 4623.78,917 c -3.92,-84.703 -22.67,-150.91 -45.94,-197.613 -45.05,-90.407 -138.53,-118.477 -178.22,11.484 -21.63,70.844 -22.64,189.156 -7.09,288.019 15.83,100.71 60.03,176.77 133.22,169.91 72.19,-6.78 105.98,-99.8 98.03,-271.8 z M 3406.76,391.48 c -0.98,-140.742 -23.13,-264.14 -70.63,-299.98 -67.37,-50.8203 -157.92,-12.6992 -139.17,90 16.59,90.879 95.05,183.691 209.99,297.09 0,0 0.24,-25.86 -0.19,-87.11 z m -18.4,526.344 c -4.12,-77.148 -24.12,-154.648 -45.94,-198.437 -45.04,-90.407 -139.2,-118.668 -178.22,11.484 -26.68,88.926 -20.29,204.02 -7.09,276.539 17.13,94.09 58.65,181.38 133.22,181.38 72.5,0 108.25,-79.54 98.03,-270.966 z m -705.01,1.18 c -4.42,-81.707 -20.36,-150.008 -45.94,-199.617 -46.28,-89.785 -137.84,-118.258 -178.22,11.484 -29.11,93.555 -19.2,221.121 -7.09,290.029 17.97,102.26 62.97,174.76 133.22,167.89 72.16,-7.05 107.24,-99.79 98.03,-269.786 z m 3230.89,-95.438 c -17.64,0 -25.69,-18.183 -32.35,-48.789 -23.1,-106.425 -47.38,-130.449 -78.69,-130.449 -34.98,0 -66.41,52.695 -74.49,158.184 -6.35,82.945 -5.33,235.648 2.79,387.548 1.66,31.21 -6.95,62.09 -90.66,92.5 -36.02,13.08 -88.38,32.34 -114.45,-30.59 -73.66,-177.79 -102.48,-318.943 -109.26,-376.275 -0.35,-2.968 -3.99,-3.574 -4.63,3.36 -4.32,45.925 -13.98,129.385 -15.18,304.715 -0.23,34.21 -7.48,63.33 -45.24,87.17 -24.5,15.47 -98.9,42.83 -125.69,10.28 -23.21,-26.62 -50.09,-98.26 -78.02,-183.18 -22.7,-69.02 -38.51,-115.708 -38.51,-115.708 0,0 0.3,186.228 0.57,256.868 0.12,26.65 -18.16,35.53 -23.67,37.14 -24.81,7.2 -73.69,19.23 -94.44,19.23 -25.6,0 -31.87,-14.31 -31.87,-35.16 0,-2.73 -4.04,-245.19 -4.04,-414.734 0,-7.364 0.01,-15.399 0.04,-23.934 -14.16,-77.922 -60.08,-183.703 -110.02,-183.703 -50,0 -73.59,44.223 -73.59,246.344 0,117.907 3.54,169.177 5.28,254.457 1.01,49.12 2.96,86.84 2.85,95.4 -0.37,26.25 -45.76,39.48 -66.88,44.37 -21.22,4.93 -39.66,6.84 -54.06,6.02 -20.38,-1.15 -34.8,-14.52 -34.8,-32.91 0,-9.86 0.11,-28.61 0.11,-28.61 -26.25,41.25 -68.47,69.96 -96.56,78.28 -75.66,22.47 -154.61,2.56 -214.16,-80.77 -47.33,-66.21 -75.86,-141.2 -87.09,-248.94 -8.21,-78.766 -5.53,-158.641 9.06,-226.188 -17.63,-76.222 -50.36,-107.453 -86.2,-107.453 -52.03,0 -89.75,84.926 -85.37,231.801 2.89,96.605 22.22,164.4 43.35,262.48 9.01,41.81 1.69,63.7 -16.67,84.68 -16.84,19.24 -52.72,29.07 -104.3,16.98 -36.74,-8.62 -89.27,-17.89 -137.33,-25.01 0,0 2.9,11.57 5.28,31.97 12.5,106.98 -103.75,98.3 -140.84,64.13 -22.14,-20.4 -37.21,-44.46 -42.93,-87.72 -9.07,-68.65 46.92,-101.03 46.92,-101.03 -18.37,-84.09 -63.4,-193.937 -109.89,-273.355 -24.9,-42.551 -43.95,-74.082 -68.54,-107.602 -0.09,12.481 -0.16,24.961 -0.2,37.383 -0.56,176.793 1.79,315.934 2.83,366.084 1.01,49.12 2.98,85.84 2.87,94.4 -0.28,19.2 -11.49,26.45 -34.81,35.63 -20.62,8.12 -45,13.74 -70.29,15.7 -31.92,2.49 -51.15,-14.44 -50.65,-34.46 0.1,-3.78 0.1,-26.99 0.1,-26.99 -26.25,41.25 -68.47,69.96 -96.56,78.28 -75.66,22.46 -154.61,2.55 -214.16,-80.77 -47.32,-66.21 -78.31,-159.12 -87.09,-248.116 -8.18,-82.949 -6.67,-153.438 4.48,-212.824 -12.03,-59.461 -46.62,-121.641 -85.73,-121.641 -50,0 -78.45,44.223 -78.45,246.344 0,117.907 3.54,169.177 5.28,254.447 1.01,49.12 2.96,86.85 2.85,95.4 -0.37,26.25 -45.76,39.48 -66.88,44.38 -22.1,5.11 -41.18,6.99 -55.83,5.91 -19.33,-1.44 -32.92,-18.75 -32.92,-31.66 0,-12.9 0,-29.75 0,-29.75 -26.25,41.25 -68.47,69.96 -96.56,78.28 -75.66,22.46 -154.17,2.23 -214.16,-80.77 -39.12,-54.12 -70.79,-114.12 -87.09,-246.94 -4.71,-38.383 -6.79,-74.325 -6.52,-107.922 -15.6,-95.403 -84.5,-205.36 -140.86,-205.36 -32.98,0 -64.39,63.969 -64.39,200.297 0,181.605 11.24,440.155 13.14,465.075 0,0 71.21,1.21 85,1.37 35.52,0.39 67.69,-0.45 115,1.97 23.73,1.21 46.59,86.37 22.1,96.91 -11.1,4.77 -89.55,8.95 -120.65,9.61 -26.15,0.59 -98.95,5.98 -98.95,5.98 0,0 6.53,171.62 8.05,189.75 1.29,15.11 -18.26,22.89 -29.47,27.61 -27.26,11.53 -51.65,17.05 -80.56,23.01 -39.94,8.24 -58.06,0.18 -61.6,-33.53 -5.33,-51.16 -8.09,-201.01 -8.09,-201.01 -29.31,0 -129.43,5.73 -158.75,5.73 -27.24,0 -56.64,-117.15 -18.98,-118.59 43.33,-1.68 118.84,-3.13 168.9,-4.64 0,0 -2.23,-262.82 -2.23,-343.963 0,-8.633 0.04,-16.946 0.09,-25.012 -27.55,-143.598 -124.59,-221.168 -124.59,-221.168 20.84,95 -21.73,166.34 -98.41,226.73 -28.25,22.254 -84.02,64.383 -146.42,110.553 0,0 36.14,35.62 68.19,107.28 22.71,50.76 23.69,108.85 -32.05,121.66 -92.1,21.18 -168.04,-46.46 -190.69,-118.67 -17.55,-55.94 -8.19,-97.45 26.19,-140.57 2.51,-3.15 5.23,-6.37 8.04,-9.61 -20.79,-40.072 -49.35,-94.022 -73.54,-135.858 -67.14,-116.164 -117.86,-208.039 -156.19,-208.039 -30.64,0 -30.23,93.282 -30.23,180.625 0,75.293 5.56,188.492 10,305.692 1.47,38.76 -17.91,60.84 -50.4,80.84 -19.74,12.15 -61.87,36.04 -86.27,36.04 -36.522,0 -141.886,-4.97 -241.448,-292.96 -12.547,-36.299 -37.196,-102.444 -37.196,-102.444 l 2.122,346.324 c 0,8.12 -4.325,15.97 -14.227,21.34 -16.777,9.11 -61.586,27.74 -101.43,27.74 -18.984,0 -28.457,-8.83 -28.457,-26.43 l -3.476,-541.825 c 0,-41.168 1.074,-89.195 5.144,-110.195 4.055,-21.032 10.625,-38.141 18.762,-48.321 8.125,-10.16 17.523,-17.91 33.019,-21.109 14.422,-2.969 93.395,-13.11 97.5,17.07 4.918,36.168 5.106,75.289 46.575,221.188 64.558,227.152 148.726,337.982 188.304,377.342 6.918,6.88 14.818,7.29 14.438,-3.97 -1.69,-49.8 -7.63,-174.243 -11.629,-279.962 -10.719,-282.918 40.749,-335.36 114.299,-335.36 56.27,0 135.59,55.911 220.62,197.442 53.01,88.199 104.48,174.68 141.46,237.008 25.77,-23.856 54.69,-49.532 83.59,-76.961 67.16,-63.742 89.21,-124.309 74.58,-181.77 -11.19,-43.926 -53.33,-89.195 -128.33,-45.195 -21.86,12.836 -31.19,22.754 -53.17,37.226 -11.81,7.774 -29.84,10.098 -40.65,1.954 -28.08,-21.172 -44.14,-48.102 -53.31,-81.442 -8.92,-32.441 23.57,-49.59 57.25,-64.59 29,-12.91 91.33,-24.609 131.08,-25.941 154.88,-5.18 278.95,74.781 365.32,281.035 15.46,-178.133 81.26,-278.926 195.58,-278.926 76.43,0 153.06,98.793 186.57,195.977 9.62,-39.617 23.86,-74.067 42.25,-103.203 88.09,-139.571 258.98,-109.532 344.82,8.988 26.54,36.621 30.58,49.781 30.58,49.781 12.52,-111.91 102.64,-151.011 154.24,-151.011 57.79,0 117.46,27.32 159.28,121.468 4.9,-10.218 10.25,-19.976 16.09,-29.226 88.09,-139.571 258.98,-109.532 344.82,8.988 4.05,5.559 7.56,10.602 10.63,15.129 l 2.52,-73.508 c 0,0 -48.97,-44.922 -79.03,-72.48 C 3188.58,394.23 3087.95,302.141 3080.55,194.898 3071.13,58.1602 3181.96,7.33984 3265.94,0.679688 3354.96,-6.39062 3431.33,42.8281 3478.2,111.711 c 41.25,60.629 68.25,191.117 66.27,320 -0.79,51.609 -2.09,117.23 -3.11,187.57 46.5,54 98.89,122.254 147.13,202.141 52.57,87.062 108.91,203.978 137.76,294.968 0,0 48.95,-0.42 101.19,3 16.71,1.09 21.51,-2.32 18.42,-14.57 -3.73,-14.8 -66,-254.98 -9.17,-414.98 38.9,-109.531 126.59,-144.77 178.58,-144.77 60.86,0 119.08,45.961 150.28,114.211 3.76,-7.609 7.69,-14.972 11.98,-21.769 88.09,-139.571 258.38,-109.352 344.82,8.988 19.51,26.699 30.58,49.781 30.58,49.781 18.55,-115.82 108.62,-151.601 160.21,-151.601 53.74,0 104.74,22.031 146.12,119.941 1.73,-43.109 4.45,-78.359 8.75,-89.473 2.62,-6.796 17.89,-15.328 29,-19.449 49.16,-18.23 99.3,-9.609 117.85,-5.859 12.85,2.601 22.87,12.91 24.24,39.531 3.6,69.899 1.39,187.344 22.58,274.625 35.57,146.484 68.75,203.304 84.49,231.434 8.81,15.76 18.75,18.36 19.11,1.68 0.74,-33.75 2.42,-132.864 16.2,-266.02 10.12,-97.934 23.64,-155.82 34.03,-174.141 29.65,-52.39 66.27,-54.871 96.09,-54.871 18.97,0 58.64,5.242 55.09,38.582 -1.73,16.25 1.3,116.68 36.37,260.988 22.9,94.239 61.08,179.392 74.85,210.522 5.08,11.48 7.44,2.43 7.36,0.67 -2.9,-64.9 -9.41,-277.184 17.03,-393.278 35.84,-157.281 139.52,-174.882 175.65,-174.882 77.13,0 140.21,58.672 161.46,213.047 5.12,37.152 -2.46,65.839 -25.17,65.839" /></g></g></g></g></svg>